HIERARCHY
ROOT Hip
{
	OFFSET	0.0000	0.0000	0.0000
	CHANNELS 6 Xposition Yposition Zposition Xrotation Yrotation Zrotation
	JOINT LowerSpine
	{
		OFFSET	0.0000	9.3884	-5.0805
		CHANNELS 3 Xrotation Yrotation Zrotation
		JOINT MiddleSpine
		{
			OFFSET	0.0000	8.5677	0.4475
			CHANNELS 3 Xrotation Yrotation Zrotation
			JOINT Chest
			{
				OFFSET	0.0000	10.6015	-2.3598
				CHANNELS 3 Xrotation Yrotation Zrotation
				JOINT Neck
				{
					OFFSET	0.0000	23.8901	-0.4968
					CHANNELS 3 Xrotation Yrotation Zrotation
					JOINT Head
					{
						OFFSET	0.0000	13.4910	3.6695
						CHANNELS 3 Xrotation Yrotation Zrotation
						End Site
						{
							OFFSET	0.0001	18.8505	0.5627
						}
					}
				}
				JOINT LClavicle
				{
					OFFSET	2.4119	23.0551	7.8988
					CHANNELS 3 Xrotation Yrotation Zrotation
					JOINT LShoulder
					{
						OFFSET	14.0907	3.3070	-5.3509
						CHANNELS 3 Xrotation Yrotation Zrotation
						JOINT LForearm
						{
							OFFSET	29.9314	-0.1063	-0.2594
							CHANNELS 3 Xrotation Yrotation Zrotation
							JOINT LHand
							{
								OFFSET	24.9691	0.0724	-0.1495
								CHANNELS 3 Xrotation Yrotation Zrotation
								JOINT LFinger1
								{
									OFFSET	9.6773	0.8463	2.6878
									CHANNELS 3 Xrotation Yrotation Zrotation
									JOINT LFinger11
									{
										OFFSET	3.6198	-0.8827	0.6378
										CHANNELS 3 Xrotation Yrotation Zrotation
										JOINT LFinger12
										{
											OFFSET	2.4711	-0.6028	0.4356
											CHANNELS 3 Xrotation Yrotation Zrotation
											End Site
											{
												OFFSET	1.7585	-0.5249	0.2852
											}
										}
									}
								}
								JOINT LFinger2
								{
									OFFSET	9.8217	0.9774	0.2340
									CHANNELS 3 Xrotation Yrotation Zrotation
									JOINT LFinger21
									{
										OFFSET	4.4757	0.0125	-0.0264
										CHANNELS 3 Xrotation Yrotation Zrotation
										JOINT LFinger22
										{
											OFFSET	2.4808	0.0075	-0.0151
											CHANNELS 3 Xrotation Yrotation Zrotation
											End Site
											{
												OFFSET	2.2283	-0.1573	0.0030
											}
										}
									}
								}
								JOINT LFinger3
								{
									OFFSET	9.3081	0.6521	-2.2021
									CHANNELS 3 Xrotation Yrotation Zrotation
									JOINT LFinger31
									{
										OFFSET	4.0612	-0.2056	-0.2543
										CHANNELS 3 Xrotation Yrotation Zrotation
										JOINT LFinger32
										{
											OFFSET	2.3142	-0.1164	-0.1454
											CHANNELS 3 Xrotation Yrotation Zrotation
											End Site
											{
												OFFSET	2.0462	-0.2516	-0.0967
											}
										}
									}
								}
								JOINT LFinger4
								{
									OFFSET	8.6376	-0.6565	-3.8031
									CHANNELS 3 Xrotation Yrotation Zrotation
									JOINT LFinger41
									{
										OFFSET	2.4980	-0.5209	-0.6896
										CHANNELS 3 Xrotation Yrotation Zrotation
										JOINT LFinger42
										{
											OFFSET	1.8318	-0.3815	-0.5060
											CHANNELS 3 Xrotation Yrotation Zrotation
											End Site
											{
												OFFSET	1.6259	-0.4467	-0.3730
											}
										}
									}
								}
								JOINT LFinger0
								{
									OFFSET	2.0018	-1.5152	1.5176
									CHANNELS 3 Xrotation Yrotation Zrotation
									JOINT LFinger01
									{
										OFFSET	3.7272	-1.2242	2.8101
										CHANNELS 3 Xrotation Yrotation Zrotation
										JOINT LFinger02
										{
											OFFSET	2.4543	-0.8782	1.7683
											CHANNELS 3 Xrotation Yrotation Zrotation
											End Site
											{
												OFFSET	1.8048	-0.6213	1.2358
											}
										}
									}
								}
							}
						}
					}
				}
				JOINT RClavicle
				{
					OFFSET	-2.4119	23.0551	7.8988
					CHANNELS 3 Xrotation Yrotation Zrotation
					JOINT RShoulder
					{
						OFFSET	-14.0932	3.3075	-5.3518
						CHANNELS 3 Xrotation Yrotation Zrotation
						JOINT RForearm
						{
							OFFSET	-29.9314	-0.1063	-0.2594
							CHANNELS 3 Xrotation Yrotation Zrotation
							JOINT RHand
							{
								OFFSET	-24.9691	0.0725	-0.1495
								CHANNELS 3 Xrotation Yrotation Zrotation
								JOINT RFinger1
								{
									OFFSET	-9.6773	0.8463	2.6878
									CHANNELS 3 Xrotation Yrotation Zrotation
									JOINT RFinger11
									{
										OFFSET	-3.6198	-0.8827	0.6378
										CHANNELS 3 Xrotation Yrotation Zrotation
										JOINT RFinger12
										{
											OFFSET	-2.4711	-0.6028	0.4356
											CHANNELS 3 Xrotation Yrotation Zrotation
											End Site
											{
												OFFSET	-1.7585	-0.5249	0.2852
											}
										}
									}
								}
								JOINT RFinger2
								{
									OFFSET	-9.8217	0.9774	0.2340
									CHANNELS 3 Xrotation Yrotation Zrotation
									JOINT RFinger21
									{
										OFFSET	-4.4757	0.0125	-0.0264
										CHANNELS 3 Xrotation Yrotation Zrotation
										JOINT RFinger22
										{
											OFFSET	-2.4808	0.0075	-0.0151
											CHANNELS 3 Xrotation Yrotation Zrotation
											End Site
											{
												OFFSET	-2.2283	-0.1573	0.0030
											}
										}
									}
								}
								JOINT RFinger3
								{
									OFFSET	-9.3081	0.6521	-2.2021
									CHANNELS 3 Xrotation Yrotation Zrotation
									JOINT RFinger31
									{
										OFFSET	-4.0612	-0.2056	-0.2543
										CHANNELS 3 Xrotation Yrotation Zrotation
										JOINT RFinger32
										{
											OFFSET	-2.3142	-0.1164	-0.1454
											CHANNELS 3 Xrotation Yrotation Zrotation
											End Site
											{
												OFFSET	-2.0462	-0.2516	-0.0967
											}
										}
									}
								}
								JOINT RFinger4
								{
									OFFSET	-8.6376	-0.6564	-3.8031
									CHANNELS 3 Xrotation Yrotation Zrotation
									JOINT RFinger41
									{
										OFFSET	-2.4980	-0.5209	-0.6896
										CHANNELS 3 Xrotation Yrotation Zrotation
										JOINT RFinger42
										{
											OFFSET	-1.8318	-0.3815	-0.5060
											CHANNELS 3 Xrotation Yrotation Zrotation
											End Site
											{
												OFFSET	-1.6259	-0.4467	-0.3730
											}
										}
									}
								}
								JOINT RFinger0
								{
									OFFSET	-2.0018	-1.5152	1.5176
									CHANNELS 3 Xrotation Yrotation Zrotation
									JOINT RFinger01
									{
										OFFSET	-3.7272	-1.2242	2.8101
										CHANNELS 3 Xrotation Yrotation Zrotation
										JOINT RFinger02
										{
											OFFSET	-2.4543	-0.8782	1.7683
											CHANNELS 3 Xrotation Yrotation Zrotation
											End Site
											{
												OFFSET	-1.8048	-0.6213	1.2358
											}
										}
									}
								}
							}
						}
					}
				}
			}
		}
	}
	JOINT RThigh
	{
		OFFSET	-10.0433	4.2439	-0.8279
		CHANNELS 3 Xrotation Yrotation Zrotation
		JOINT RShin
		{
			OFFSET	-0.8036	-43.6839	0.0000
			CHANNELS 3 Xrotation Yrotation Zrotation
			JOINT RFoot
			{
				OFFSET	0.0000	-42.8949	0.0000
				CHANNELS 3 Xrotation Yrotation Zrotation
				JOINT RToe
				{
					OFFSET	0.0000	-4.7145	9.8587
					CHANNELS 3 Xrotation Yrotation Zrotation
					End Site
					{
						OFFSET	0.0000	0.0000	6.6138
					}
				}
			}
		}
	}
	JOINT LThigh
	{
		OFFSET	10.0432	4.2442	-0.8279
		CHANNELS 3 Xrotation Yrotation Zrotation
		JOINT LShin
		{
			OFFSET	0.8037	-43.6842	0.0000
			CHANNELS 3 Xrotation Yrotation Zrotation
			JOINT LFoot
			{
				OFFSET	0.0000	-42.8949	0.0000
				CHANNELS 3 Xrotation Yrotation Zrotation
				JOINT LToe
				{
					OFFSET	0.0000	-4.7146	9.8587
					CHANNELS 3 Xrotation Yrotation Zrotation
					End Site
					{
						OFFSET	0.0000	0.0000	6.6138
					}
				}
			}
		}
	}
}
MOTION
Frames:	6
Frame Time: 0.0333333000
	-1.6806	90.3351	113.3290	4.031878	-5.326858	-4.072550	0.000000	0.000000	0.000000	0.875362	-0.517960	0.886072	2.951983	-1.673203	2.983604	0.000000	0.000000	0.000000	0.000000	0.000000	0.000000	0.000000	0.000000	-14.454750	10.155410	-33.565280	-53.858350	2.412263	-28.631420	0.016329	0.000000	0.000000	0.000000	0.000000	0.000000	0.000000	0.000000	0.000000	0.000000	0.000000	0.000000	0.000000	0.000000	0.000000	0.000000	0.000000	0.000000	0.000000	0.000000	0.000000	0.000000	0.000000	0.000000	0.000000	0.000000	0.000000	0.000000	0.000000	0.000000	0.000000	0.000000	0.000000	0.000000	0.000000	0.000000	0.000000	0.000000	0.000000	0.000000	0.000000	0.000000	0.000000	0.000000	0.000000	0.000000	0.000000	0.000000	0.000000	0.000000	0.000000	12.820780	28.339330	15.456220	59.010500	9.631166	39.310420	0.152257	0.000000	0.000000	0.000000	0.000000	0.000000	0.000000	0.000000	0.000000	0.000000	0.000000	0.000000	0.000000	0.000000	0.000000	0.000000	0.000000	0.000000	0.000000	0.000000	0.000000	0.000000	0.000000	0.000000	0.000000	0.000000	0.000000	0.000000	0.000000	0.000000	0.000000	0.000000	0.000000	0.000000	0.000000	0.000000	0.000000	0.000000	0.000000	0.000000	0.000000	0.000000	0.000000	0.000000	0.000000	0.000000	0.000000	0.000000	0.000000	-24.368130	2.029313	7.902615	14.644180	2.898351	-0.820546	0.141834	-0.360840	-0.173030	0.000000	0.000000	0.000000	3.775667	-0.713852	-1.034477	20.235690	-0.363255	0.108007	0.016497	-0.294473	-0.141160	-2.223223	0.000000	0.000000
	-1.8116	90.3386	115.9945	4.124627	-4.826893	-2.839688	0.000000	0.000000	0.000000	0.934172	-0.525725	0.555016	3.137006	-1.716597	1.883751	0.000000	0.000000	0.000000	0.000000	0.000000	0.000000	0.000000	0.000000	-14.352310	8.336824	-29.870500	-54.467850	-0.928588	-30.298690	0.015562	0.000000	0.000000	0.000000	0.000000	0.000000	0.000000	0.000000	0.000000	0.000000	0.000000	0.000000	0.000000	0.000000	0.000000	0.000000	0.000000	0.000000	0.000000	0.000000	0.000000	0.000000	0.000000	0.000000	0.000000	0.000000	0.000000	0.000000	0.000000	0.000000	0.000000	0.000000	0.000000	0.000000	0.000000	0.000000	0.000000	0.000000	0.000000	0.000000	0.000000	0.000000	0.000000	0.000000	0.000000	0.000000	0.000000	0.000000	0.000000	0.000000	0.000000	13.291320	26.015440	16.504610	58.763440	7.803958	36.648930	0.123409	0.000000	0.000000	0.000000	0.000000	0.000000	0.000000	0.000000	0.000000	0.000000	0.000000	0.000000	0.000000	0.000000	0.000000	0.000000	0.000000	0.000000	0.000000	0.000000	0.000000	0.000000	0.000000	0.000000	0.000000	0.000000	0.000000	0.000000	0.000000	0.000000	0.000000	0.000000	0.000000	0.000000	0.000000	0.000000	0.000000	0.000000	0.000000	0.000000	0.000000	0.000000	0.000000	0.000000	0.000000	0.000000	0.000000	0.000000	0.000000	-23.865280	4.900505	7.263326	15.414690	5.485875	-1.564036	0.462840	-0.641533	-0.303790	0.000000	0.000000	0.000000	1.891988	-0.048513	-1.974284	26.589670	0.419753	-0.120914	-0.017450	0.007468	0.002756	-0.449081	0.000000	0.000000
	-2.0331	90.3399	118.8876	4.052816	-3.695122	-1.824292	0.000000	0.000000	0.000000	0.919030	-0.532265	0.356510	3.076230	-1.750144	1.222161	0.000000	0.000000	0.000000	0.000000	0.000000	0.000000	0.000000	0.000000	-14.315200	8.257812	-26.979250	-54.559470	-2.442867	-31.882000	-0.018630	0.000000	0.000000	0.000000	0.000000	0.000000	0.000000	0.000000	0.000000	0.000000	0.000000	0.000000	0.000000	0.000000	0.000000	0.000000	0.000000	0.000000	0.000000	0.000000	0.000000	0.000000	0.000000	0.000000	0.000000	0.000000	0.000000	0.000000	0.000000	0.000000	0.000000	0.000000	0.000000	0.000000	0.000000	0.000000	0.000000	0.000000	0.000000	0.000000	0.000000	0.000000	0.000000	0.000000	0.000000	0.000000	0.000000	0.000000	0.000000	0.000000	0.000000	13.555130	24.092360	16.474370	58.524550	5.940390	35.956710	0.091030	0.000000	0.000000	0.000000	0.000000	0.000000	0.000000	0.000000	0.000000	0.000000	0.000000	0.000000	0.000000	0.000000	0.000000	0.000000	0.000000	0.000000	0.000000	0.000000	0.000000	0.000000	0.000000	0.000000	0.000000	0.000000	0.000000	0.000000	0.000000	0.000000	0.000000	0.000000	0.000000	0.000000	0.000000	0.000000	0.000000	0.000000	0.000000	0.000000	0.000000	0.000000	0.000000	0.000000	0.000000	0.000000	0.000000	0.000000	0.000000	-22.359090	6.629623	6.427992	15.602000	6.936989	-1.955474	0.643272	-0.749493	-0.351880	0.000000	0.000000	0.000000	-0.462748	-0.077409	-2.377068	32.905380	0.521639	-0.103147	0.069009	0.264501	0.126614	-0.000052	0.000000	0.000000
	-2.4569	90.3584	121.9057	3.850349	-2.363690	-1.392404	0.000000	0.000000	0.000000	0.850541	-0.616672	0.401715	2.852620	-2.031823	1.375093	0.000000	0.000000	0.000000	0.000000	0.000000	0.000000	0.000000	0.000000	-14.315180	9.762347	-25.712410	-54.225300	-1.702244	-32.393400	-0.009636	0.000000	0.000000	0.000000	0.000000	0.000000	0.000000	0.000000	0.000000	0.000000	0.000000	0.000000	0.000000	0.000000	0.000000	0.000000	0.000000	0.000000	0.000000	0.000000	0.000000	0.000000	0.000000	0.000000	0.000000	0.000000	0.000000	0.000000	0.000000	0.000000	0.000000	0.000000	0.000000	0.000000	0.000000	0.000000	0.000000	0.000000	0.000000	0.000000	0.000000	0.000000	0.000000	0.000000	0.000000	0.000000	0.000000	0.000000	0.000000	0.000000	0.000000	13.616820	22.724320	15.998660	57.825290	4.582149	35.549260	0.095541	0.000000	0.000000	0.000000	0.000000	0.000000	0.000000	0.000000	0.000000	0.000000	0.000000	0.000000	0.000000	0.000000	0.000000	0.000000	0.000000	0.000000	0.000000	0.000000	0.000000	0.000000	0.000000	0.000000	0.000000	0.000000	0.000000	0.000000	0.000000	0.000000	0.000000	0.000000	0.000000	0.000000	0.000000	0.000000	0.000000	0.000000	0.000000	0.000000	0.000000	0.000000	0.000000	0.000000	0.000000	0.000000	0.000000	0.000000	0.000000	-20.023120	5.895187	5.839532	15.356850	6.053662	-1.691012	0.423763	-0.603869	-0.285685	0.000000	0.000000	0.000000	-3.845759	-0.467074	-1.813985	39.760540	0.330133	0.059948	0.104454	0.360573	0.171782	0.000024	0.000000	0.000000
	-3.0067	90.2769	124.9359	3.495690	-1.209913	-1.256537	0.000000	0.000000	0.000000	0.767793	-0.702597	0.526295	2.585260	-2.314363	1.791169	0.000000	0.000000	0.000000	0.000000	0.000000	0.000000	0.000000	0.000000	-14.308200	11.786650	-25.422080	-53.745040	0.006967	-31.791210	-0.012156	0.000000	0.000000	0.000000	0.000000	0.000000	0.000000	0.000000	0.000000	0.000000	0.000000	0.000000	0.000000	0.000000	0.000000	0.000000	0.000000	0.000000	0.000000	0.000000	0.000000	0.000000	0.000000	0.000000	0.000000	0.000000	0.000000	0.000000	0.000000	0.000000	0.000000	0.000000	0.000000	0.000000	0.000000	0.000000	0.000000	0.000000	0.000000	0.000000	0.000000	0.000000	0.000000	0.000000	0.000000	0.000000	0.000000	0.000000	0.000000	0.000000	0.000000	13.574900	21.611560	15.506360	56.804880	3.619688	36.167900	0.062617	0.000000	0.000000	0.000000	0.000000	0.000000	0.000000	0.000000	0.000000	0.000000	0.000000	0.000000	0.000000	0.000000	0.000000	0.000000	0.000000	0.000000	0.000000	0.000000	0.000000	0.000000	0.000000	0.000000	0.000000	0.000000	0.000000	0.000000	0.000000	0.000000	0.000000	0.000000	0.000000	0.000000	0.000000	0.000000	0.000000	0.000000	0.000000	0.000000	0.000000	0.000000	0.000000	0.000000	0.000000	0.000000	0.000000	0.000000	0.000000	-17.260440	4.839178	5.629562	14.338730	4.948622	-1.295615	0.148446	-0.425510	-0.203265	0.000000	0.000000	0.000000	-7.535837	-0.591635	-0.689958	45.959230	0.402942	0.029744	0.122737	0.393912	0.187629	0.000000	0.000000	0.000000
	-3.5882	90.0725	127.9044	2.924253	-0.221809	-1.311544	0.000000	0.000000	0.000000	0.759423	-0.784967	0.594892	2.563745	-2.585159	2.023411	0.000000	0.000000	0.000000	0.000000	0.000000	0.000000	0.000000	0.000000	-14.289250	13.404070	-25.278990	-53.382570	1.413790	-31.073800	-0.044288	0.000000	0.000000	0.000000	0.000000	0.000000	0.000000	0.000000	0.000000	0.000000	0.000000	0.000000	0.000000	0.000000	0.000000	0.000000	0.000000	0.000000	0.000000	0.000000	0.000000	0.000000	0.000000	0.000000	0.000000	0.000000	0.000000	0.000000	0.000000	0.000000	0.000000	0.000000	0.000000	0.000000	0.000000	0.000000	0.000000	0.000000	0.000000	0.000000	0.000000	0.000000	0.000000	0.000000	0.000000	0.000000	0.000000	0.000000	0.000000	0.000000	0.000000	13.599210	20.378980	15.686750	55.857400	2.803821	37.789090	0.062263	0.000000	0.000000	0.000000	0.000000	0.000000	0.000000	0.000000	0.000000	0.000000	0.000000	0.000000	0.000000	0.000000	0.000000	0.000000	0.000000	0.000000	0.000000	0.000000	0.000000	0.000000	0.000000	0.000000	0.000000	0.000000	0.000000	0.000000	0.000000	0.000000	0.000000	0.000000	0.000000	0.000000	0.000000	0.000000	0.000000	0.000000	0.000000	0.000000	0.000000	0.000000	0.000000	0.000000	0.000000	0.000000	0.000000	0.000000	0.000000	-14.181580	4.937209	5.873015	12.429460	5.057042	-1.124714	0.005884	-0.398458	-0.189903	0.000000	0.000000	0.000000	-10.469120	-0.131145	0.588440	49.567340	0.872966	-0.459680	0.068523	0.506819	0.241802	0.000000	0.000000	0.000000
